<?xml version="1.0" encoding="utf-8"?>
<!-- Generator: Adobe Illustrator 22.0.0, SVG Export Plug-In . SVG Version: 6.00 Build 0)  -->
<svg version="1.1" xmlns="http://www.w3.org/2000/svg" xmlns:xlink="http://www.w3.org/1999/xlink" x="0px" y="0px"
	 viewBox="0 0 3141.3 742.1" style="enable-background:new 0 0 3141.3 742.1;" xml:space="preserve">
<style type="text/css">
	.st0{fill:#FFFFFF;}
	.st1{fill:none;}
	.st2{display:none;}
	.st3{display:inline;fill:#B92353;}
	.st4{display:inline;fill:#FFFFFF;}
</style>
<g id="Layer_1">
	<g id="Layer_8">
		<path class="st0" d="M2947.9,366.9c0-1.3,0.2-2.5,0.2-3.8v-0.6V113.3h-61v129.6"/>
	</g>
	<g id="Layer_7">
		<g>
			<path class="st0" d="M233.1,206.8c21.7,0,42,4.1,61.2,12.4c19.1,8.3,35.9,19.5,50.2,33.7c14.4,14.2,25.7,31,34,50.3
				c8.3,19.3,12.4,39.9,12.4,61.6v153.3h-61v-28.7c-13.4,10.2-28.2,18.2-44.4,24c-16.2,5.9-33.6,8.8-52.1,8.8
				c-21.7,0-42.1-4.1-61.3-12.4c-19.1-8.3-35.8-19.5-50-33.8c-14.2-14.2-25.5-30.9-33.8-50c-8.3-19.1-12.4-39.6-12.4-61.3
				c0-21.7,4.1-42.2,12.4-61.6c8.3-19.3,19.5-36.1,33.7-50.3c14.2-14.2,30.8-25.5,49.9-33.7C191,211,211.4,206.8,233.1,206.8z
				 M233.4,461.4c13.4,0,26-2.6,37.6-7.7c11.6-5.2,21.8-12.1,30.5-20.8c8.7-8.7,15.6-19,20.7-30.7c5.1-11.7,7.7-24.1,7.7-37.2
				c0-13.5-2.6-26.1-7.7-37.8c-5.1-11.7-12-21.9-20.7-30.7c-8.7-8.7-18.9-15.7-30.5-20.9c-11.6-5.2-24.2-7.7-37.6-7.7
				c-13.4,0-26,2.6-37.6,7.7c-11.6,5.2-21.8,12.1-30.5,20.9c-8.7,8.7-15.6,19-20.7,30.7c-5.1,11.7-7.7,24.3-7.7,37.8
				c0,13.1,2.6,25.5,7.7,37.2c5.1,11.7,12,21.9,20.7,30.7c8.7,8.7,18.8,15.7,30.5,20.8C207.4,458.8,220,461.4,233.4,461.4z"/>
			<path class="st0" d="M740.9,363.1c0,21.7-4,42-12.1,61c-8.1,18.9-19.2,35.5-33.5,49.7c-14.2,14.2-30.8,25.4-49.7,33.5
				c-18.9,8.1-39.3,12.1-61,12.1c-21.7,0-42-4-61-12.1c-18.9-8.1-35.5-19.2-49.7-33.5c-14.2-14.2-25.4-30.8-33.5-49.7
				c-8.1-18.9-12.1-39.3-12.1-61c0-21.7,4-42,12.1-61c8.1-18.9,19.2-35.5,33.5-49.7c14.2-14.2,30.8-25.4,49.7-33.5
				c18.9-8.1,39.3-12.1,61-12.1c18.2,0,35.2,2.9,51.2,8.6c16,5.7,30.7,13.7,44.1,24v-105h61v228.2V363.1z M584.9,458.4
				c13,0,25.3-2.5,36.9-7.4c11.6-4.9,21.7-11.7,30.4-20.4c8.7-8.7,15.4-18.8,20.4-30.5c4.9-11.6,7.4-24,7.4-37v-0.6
				c0-13-2.5-25.3-7.4-36.7c-4.9-11.4-11.7-21.5-20.4-30.2c-8.7-8.7-18.8-15.5-30.4-20.4c-11.6-4.9-23.9-7.4-36.9-7.4
				c-13,0-25.3,2.5-36.9,7.4c-11.6,4.9-21.7,11.8-30.4,20.4c-8.7,8.7-15.5,18.9-20.7,30.5c-5.1,11.6-7.7,24-7.7,37
				c0,13,2.6,25.4,7.7,37c5.1,11.6,12,21.8,20.7,30.5c8.7,8.7,18.8,15.5,30.4,20.4C559.6,456,571.9,458.4,584.9,458.4z"/>
			<path class="st0" d="M961.8,383.3h-119c2.4,10.7,6.4,20.6,12.1,29.9c5.7,9.3,12.7,17.3,21,24c8.3,6.7,17.6,11.9,27.8,15.7
				c10.3,3.8,21.1,5.6,32.6,5.6c13.8,0,26.7-2.8,38.8-8.3c12-5.5,22.6-13.2,31.7-23.1h11.2h60.4c-2.4,5.9-5.2,11.5-8.6,16.9
				c-3.4,5.3-7,10.6-11,15.7c-14.2,18.2-32,32.7-53.3,43.5c-21.3,10.9-44.4,16.3-69.3,16.3c-21.7,0-42-4-61-12.1
				c-18.9-8.1-35.5-19.2-49.7-33.5c-14.2-14.2-25.4-30.8-33.5-49.7c-8.1-18.9-12.1-39.3-12.1-61c0-21.7,4-42,12.1-61
				c8.1-18.9,19.2-35.5,33.5-49.7c14.2-14.2,30.8-25.4,49.7-33.5c18.9-8.1,39.3-12.1,61-12.1c24.9,0,48,5.4,69.3,16.3
				c21.3,10.9,39.1,25.6,53.3,44.1c13,15.8,22.5,34.3,28.4,55.7c3.6,12.6,5.3,26.1,5.3,40.3c0,7.1-0.6,13.8-1.8,20.1h-61.6H961.8z
				 M936.3,267.8c-19.3,0-36.6,5-51.8,14.9c-15.2,10-26.7,23.1-34.6,39.5h138h34.9c-2-3.1-3.8-6.2-5.6-9.4c-1.8-3.1-3.7-6.1-5.6-8.8
				c-9.1-11.3-20.1-20.2-33.2-26.6C965.3,271,951.3,267.8,936.3,267.8z"/>
			<path class="st0" d="M1489.4,218.3v-78.1h61v78.1h56.8v61h-56.8v240.1h-61V279.3"/>
			<path class="st0" d="M1132.3,362.5c0-21.7,4.1-42,12.1-61c8.1-18.9,19.2-35.5,33.5-49.7c14.2-14.2,30.8-25.4,49.7-33.5
				c19-8.1,39.3-12.1,61-12.1c21.7,0,42,4,61,12.1c19,8.1,35.5,19.2,49.7,33.5c14.2,14.2,25.4,30.8,33.5,49.7
				c8.1,18.9,12.1,39.3,12.1,61c0,21.7-4,42-12.1,61c-8.1,18.9-19.3,35.5-33.5,49.7c-14.2,14.2-30.8,25.4-49.7,33.5
				c-18.9,8.1-39.3,12.1-61,12.1c-18.1,0-35.2-2.9-51.2-8.6c-16-5.7-30.7-13.7-44.1-24v126.1h-61V363.1V362.5z M1288.3,267.2
				c-13,0-25.3,2.5-36.9,7.4c-11.6,4.9-21.7,11.7-30.4,20.4c-8.7,8.7-15.4,18.8-20.4,30.5c-4.9,11.6-7.4,24-7.4,37v0.6
				c0,13,2.5,25.3,7.4,36.7c4.9,11.4,11.7,21.5,20.4,30.2c8.7,8.7,18.8,15.5,30.4,20.4c11.6,4.9,23.9,7.4,36.9,7.4
				c13,0,25.3-2.5,36.9-7.4c11.6-4.9,21.7-11.8,30.4-20.4c8.7-8.7,15.5-18.9,20.7-30.5c5.1-11.6,7.7-24,7.7-37s-2.5-25.4-7.7-37
				c-5.1-11.6-12-21.8-20.7-30.5c-8.7-8.7-18.8-15.5-30.4-20.4C1313.6,269.7,1301.3,267.2,1288.3,267.2z"/>
		</g>
	</g>
	<g id="Layer_6">
		<g>
			<path class="st0" d="M2179.8,174.3v-61h61v61H2179.8z M2240.7,206.2v312.6h-61V206.2H2240.7z"/>
			<path class="st0" d="M2562.3,275.8c-11-19.9-25.8-36.2-44.6-48.8c-10.7-7.1-22.4-12.6-35.3-16.6c-12.8-3.9-26.2-5.9-40-5.9
				c-0.1,0-0.2,0-0.2,0c-0.1,0-0.2,0-0.2,0c-13.8,0-27.2,2-40,5.9c-12.8,3.9-24.6,9.5-35.3,16.6c-18.8,12.6-33.6,28.9-44.6,48.8
				c-10.9,19.9-16.4,41.7-16.4,65.4v178.2h61v-64.5V341.2c0-10.3,2-20,5.9-29.3c4-9.3,9.4-17.4,16.3-24.3c6.9-6.9,15-12.3,24.1-16.3
				c9.1-3.9,18.8-5.9,29.1-5.9c10.3,0,20,2,29.1,5.9c9.1,4,17.1,9.4,24.1,16.3c6.9,6.9,12.4,15,16.3,24.3c4,9.3,6,19,6,29.3v113.7
				v64.5h61V341.2C2578.7,317.5,2573.2,295.7,2562.3,275.8z"/>
			<path class="st0" d="M1894.3,275.8c-11-19.9-25.8-36.2-44.6-48.8c-10.7-7.1-22.4-12.6-35.3-16.6c-12.8-3.9-26.2-5.9-40-5.9
				c-0.1,0-0.2,0-0.2,0c-0.1,0-0.2,0-0.2,0c-13.8,0-27.2,2-40,5.9c-12.8,3.9-24.6,9.5-35.3,16.6c-18.8,12.6-33.6,28.9-44.6,48.8
				c-10.9,19.9-16.4,41.7-16.4,65.4v178.2h61v-64.5V341.2c0-10.3,2-20,6-29.3c4-9.3,9.4-17.4,16.3-24.3c6.9-6.9,15-12.3,24.1-16.3
				c9.1-3.9,18.8-5.9,29.1-5.9c10.3,0,20,2,29.1,5.9c9.1,4,17.1,9.4,24.1,16.3c6.9,6.9,12.4,15,16.3,24.3c4,9.3,5.9,19,5.9,29.3
				v113.7v64.5h61V341.2C1910.7,317.5,1905.2,295.7,1894.3,275.8z"/>
			<path class="st0" d="M2106.2,275.8c-11-19.9-25.8-36.2-44.6-48.8c-10.7-7.1-22.4-12.6-35.3-16.6c-12.8-3.9-26.2-5.9-40-5.9
				c-0.1,0-0.2,0-0.2,0c-0.1,0-0.2,0-0.2,0c-13.8,0-27.2,2-40,5.9c-12.8,3.9-24.6,9.5-35.3,16.6c-18.8,12.6-33.6,28.9-44.6,48.8
				c-10.9,19.9-16.4,41.7-16.4,65.4v178.2h61v-64.5V341.2c0-10.3,2-20,6-29.3c4-9.3,9.4-17.4,16.3-24.3c6.9-6.9,15-12.3,24.1-16.3
				c9.1-3.9,18.8-5.9,29.1-5.9c10.3,0,20,2,29.1,5.9c9.1,4,17.1,9.4,24.1,16.3c6.9,6.9,12.4,15,16.3,24.3c4,9.3,5.9,19,5.9,29.3
				v113.7v64.5h61V341.2C2122.7,317.5,2117.2,295.7,2106.2,275.8z"/>
		</g>
	</g>
	<g id="Layer_5_copy">
		
			<rect x="2885.8" y="480.8" transform="matrix(0.707 -0.7072 0.7072 0.707 511.1064 2209.2607)" class="st0" width="71.6" height="14.1"/>
	</g>
	<g id="Layer_5_copy_2">
	</g>
	<g id="Layer_5">
		
			<rect x="2954.5" y="480.6" transform="matrix(0.7071 -0.7071 0.7071 0.7071 482.352 2277.5208)" class="st0" width="71.6" height="151.8"/>
	</g>
	<g id="Layer_4">
		<path class="st1" d="M2859.3,295.6c-8.7-8.7-18.8-15.5-30.4-20.4c-11.6-4.9-23.9-7.4-36.9-7.4c-13,0-25.3,2.5-36.9,7.4
			c-11.6,4.9-21.7,11.8-30.4,20.4c-8.7,8.7-15.5,18.9-20.7,30.5c-5.1,11.6-7.7,24-7.7,37c0,13,2.5,25.4,7.7,37
			c5.1,11.6,12,21.8,20.7,30.5c8.7,8.7,18.8,15.5,30.4,20.4c11.6,4.9,23.9,7.4,36.9,7.4c13,0,25.3-2.5,36.9-7.4
			c11.6-4.9,21.7-11.7,30.4-20.4c8.7-8.7,15.4-18.8,20.4-30.5c4.9-11.6,7.4-24,7.4-37v-0.6c0-13-2.5-25.3-7.4-36.7
			C2874.8,314.4,2868,304.3,2859.3,295.6z"/>
	</g>
	<g id="Layer_3">
		<path class="st1" d="M2843,215.4c3,1.1,6,2.3,8.9,3.6C2846.4,216.5,2843,215.4,2843,215.4z"/>
	</g>
	<g id="Layer_2">
		<path class="st0" d="M2851.9,219c-2.9-1.3-5.9-2.5-8.9-3.6c-16-5.7-33.1-8.6-51.2-8.6c-21.7,0-42,4.1-61,12.1
			c-19,8.1-35.5,19.2-49.7,33.5c-14.2,14.2-25.4,30.8-33.5,49.7c-8.1,18.9-12.1,39.3-12.1,61c0,21.7,4,42,12.1,61
			c8.1,18.9,19.2,35.5,33.5,49.7c14.2,14.2,30.8,25.4,49.7,33.5c18.9,8.1,39.3,12.1,61,12.1c21.7,0,42-4,61-12.1
			c18.9-8.1,35.5-19.2,49.7-33.5c14.2-14.2,25.4-30.8,33.5-49.7c7.6-17.8,11.5-36.9,12-57.2C2944.8,269.6,2876.7,230.1,2851.9,219z
			 M2887.1,363.1c0,13-2.5,25.4-7.4,37c-4.9,11.6-11.7,21.8-20.4,30.5c-8.7,8.7-18.8,15.5-30.4,20.4c-11.6,4.9-23.9,7.4-36.9,7.4
			c-13,0-25.3-2.5-36.9-7.4c-11.6-4.9-21.7-11.7-30.4-20.4c-8.7-8.7-15.5-18.8-20.7-30.5c-5.1-11.6-7.7-24-7.7-37
			c0-13,2.5-25.4,7.7-37c5.1-11.6,12-21.8,20.7-30.5c8.7-8.7,18.8-15.5,30.4-20.4c11.6-4.9,23.9-7.4,36.9-7.4
			c13,0,25.3,2.5,36.9,7.4c11.6,4.9,21.7,11.8,30.4,20.4c8.7,8.7,15.4,18.8,20.4,30.2c4.9,11.5,7.4,23.7,7.4,36.7V363.1z"/>
	</g>
</g>
<g id="Layer_9" class="st2">
	<path class="st3" d="M2851.9,356c0,33.1-26.9,60-60,60c-33.1,0-60-26.9-60-60c0-33.1,26.9-60,60-60
		C2825,296.1,2851.9,322.9,2851.9,356z"/>
	<path class="st4" d="M2857.9,372.4c0,32.8-29.5,59.5-66,59.5s-66-26.6-66-59.5c0-32.8,29.5-59.5,66-59.5S2857.9,339.5,2857.9,372.4
		z"/>
</g>
</svg>
