<svg id="a804943e-f25c-49f0-8218-d51a3a5e363c" data-name="Layer 2" xmlns="http://www.w3.org/2000/svg" width="703.71" height="124" viewBox="0 0 703.71 124">
  <g>
    <g>
      <polygon points="0 93.69 0 30 47 30 72 77 0 93.69" fill="#6cb8dc"/>
      <polygon points="55 0 12.2 23.34 0 30 54.83 61.99 107 92.7 107 31 55 0" fill="#afd5e7"/>
      <polygon points="0 93.69 0 94 54 124 107 93 107 92.7 54.83 61.99 0 93.69" fill="#1190cb"/>
    </g>
    <g>
      <path d="M138.29,56.21H129.9L148.75,3.84h9.12l18.85,52.37h-8.39l-14.8-42.86h-.41Zm1.4-20.51H166.9v6.65H139.69Z" fill="#fff"/>
      <path d="M198.66,3.84h9.59l16.67,40.7h.61L242.2,3.84h9.59V56.21h-7.52V18.31h-.48L228.34,56.13H222.1L206.66,18.29h-.48V56.21h-7.52Z" fill="#fff"/>
      <path d="M277.69,56.21V3.84h18.67a20.6,20.6,0,0,1,10.12,2.23,14.41,14.41,0,0,1,6,6.07,18.5,18.5,0,0,1,2,8.65,18.45,18.45,0,0,1-2,8.68,14.62,14.62,0,0,1-6,6.09,20.68,20.68,0,0,1-10.12,2.23H283.5V31.1h12.12a12.71,12.71,0,0,0,6.26-1.35,8.25,8.25,0,0,0,3.53-3.66,12.06,12.06,0,0,0,1.13-5.3,11.82,11.82,0,0,0-1.13-5.26,8.07,8.07,0,0,0-3.54-3.61,13.36,13.36,0,0,0-6.35-1.3H285.6V56.21Z" fill="#fff"/>
      <path d="M338.12,56.21V3.84H371v6.8H346v16h23.21v6.77H346v16h25.23v6.81Z" fill="#fff"/>
      <path d="M412.88,56.21H395.93V3.84h17.49A26.36,26.36,0,0,1,426.64,7a20.92,20.92,0,0,1,8.48,9,30.81,30.81,0,0,1,2.95,14,30.74,30.74,0,0,1-3,14.06,21,21,0,0,1-8.6,9A27.47,27.47,0,0,1,412.88,56.21Zm-9.05-6.91h8.62A19.78,19.78,0,0,0,422.39,47a14.13,14.13,0,0,0,5.94-6.57,25.27,25.27,0,0,0,2-10.52,25.2,25.2,0,0,0-2-10.46A13.89,13.89,0,0,0,422.52,13a19,19,0,0,0-9.59-2.23h-9.1Z" fill="#fff"/>
    </g>
    <g>
      <path d="M131.38,117.77V65.4h32.47v6.8H139.28v16h22.25v6.77H139.28v22.84Z" fill="#fff"/>
      <path d="M188,117.77V65.4h18.66a21.78,21.78,0,0,1,10.12,2.1,14,14,0,0,1,6,5.79,17.67,17.67,0,0,1,2,8.53,17.33,17.33,0,0,1-2,8.45,13.66,13.66,0,0,1-6,5.66,22.39,22.39,0,0,1-10.11,2H192.47v-6.8h13.42a15.31,15.31,0,0,0,6.26-1.1,7.26,7.26,0,0,0,3.54-3.2,10.47,10.47,0,0,0,1.12-5,10.92,10.92,0,0,0-1.14-5.14,7.59,7.59,0,0,0-3.55-3.34,14.76,14.76,0,0,0-6.33-1.16h-9.92v45.59Zm25.85-23.63,12.94,23.63h-9L205.08,94.14Z" fill="#fff"/>
      <path d="M253.23,117.77h-8.39L263.68,65.4h9.13l18.84,52.37h-8.38L268.46,74.92h-.41Zm1.4-20.51h27.21v6.65H254.63Z" fill="#fff"/>
      <path d="M313.6,65.4h9.58l16.67,40.71h.62L357.14,65.4h9.59v52.37h-7.52V79.88h-.49l-15.44,37.81H337L321.6,79.85h-.49v37.92H313.6Z" fill="#fff"/>
      <path d="M392.63,117.77V65.4h32.83v6.8H400.53v16h23.22v6.77H400.53v16h25.24v6.8Z" fill="#fff"/>
      <path d="M460.7,117.77,446.18,65.4h8.31L464.69,106h.48L475.79,65.4H484L494.63,106h.49L505.29,65.4h8.33l-14.54,52.37h-8l-11-39.23h-.41l-11,39.23Z" fill="#fff"/>
      <path d="M578.14,91.58A31.31,31.31,0,0,1,575.07,106a22.37,22.37,0,0,1-8.4,9.26,24.35,24.35,0,0,1-24.24,0A22.44,22.44,0,0,1,534,106,31.35,31.35,0,0,1,531,91.58,31.3,31.3,0,0,1,534,77.18a22.41,22.41,0,0,1,8.39-9.26,24.35,24.35,0,0,1,24.24,0,22.37,22.37,0,0,1,8.4,9.26A31.3,31.3,0,0,1,578.14,91.58Zm-7.82,0a25.26,25.26,0,0,0-2.06-10.77,15.35,15.35,0,0,0-5.63-6.65,15.54,15.54,0,0,0-16.14,0,15.4,15.4,0,0,0-5.62,6.65,25.27,25.27,0,0,0-2,10.77,25.28,25.28,0,0,0,2,10.78,15.4,15.4,0,0,0,5.62,6.65,15.54,15.54,0,0,0,16.14,0,15.35,15.35,0,0,0,5.63-6.65A25.28,25.28,0,0,0,570.32,91.58Z" fill="#fff"/>
      <path d="M602.36,117.77V65.4H621a21.71,21.71,0,0,1,10.11,2.1,13.88,13.88,0,0,1,6,5.79,17.68,17.68,0,0,1,2,8.53,17.23,17.23,0,0,1-2,8.45,13.69,13.69,0,0,1-6,5.66A22.45,22.45,0,0,1,621,98H606.86v-6.8h13.42a15.22,15.22,0,0,0,6.25-1.1,7.26,7.26,0,0,0,3.54-3.2,10.47,10.47,0,0,0,1.13-5,10.92,10.92,0,0,0-1.14-5.14,7.59,7.59,0,0,0-3.55-3.34,14.79,14.79,0,0,0-6.33-1.16h-9.92v45.59Zm25.85-23.63,12.93,23.63h-9L619.46,94.14Z" fill="#fff"/>
      <path d="M663.19,117.77V65.4h7.9v25h.64l22-25h9.95L682.52,89l21.19,28.79H694.2l-16.92-23.4-6.19,7.11v16.29Z" fill="#fff"/>
    </g>
  </g>
</svg>
