<?xml version="1.0" standalone="no"?>
<!DOCTYPE svg PUBLIC "-//W3C//DTD SVG 20010904//EN"
 "http://www.w3.org/TR/2001/REC-SVG-20010904/DTD/svg10.dtd">
<svg version="1.0" xmlns="http://www.w3.org/2000/svg"
 width="632.000000pt" height="632.000000pt" viewBox="0 0 632.000000 632.000000"
 preserveAspectRatio="xMidYMid meet">
<metadata>
Created by potrace 1.11, written by Peter Selinger 2001-2013
</metadata>
<g transform="translate(0.000000,632.000000) scale(0.100000,-0.100000)"
fill="#000000" stroke="none">
<path d="M3220 6313 c0 -4 -10 -13 -23 -19 -24 -11 -149 -78 -207 -111 -74
-42 -244 -134 -345 -187 -22 -12 -42 -23 -45 -26 -3 -3 -25 -15 -50 -28 -25
-12 -63 -33 -85 -45 -22 -13 -80 -45 -130 -72 -49 -27 -108 -59 -130 -72 -22
-12 -53 -29 -70 -37 -16 -8 -58 -31 -93 -50 -83 -47 -231 -127 -259 -140 -13
-6 -23 -14 -23 -18 0 -5 -9 -8 -19 -8 -11 0 -21 -3 -23 -7 -1 -5 -19 -16 -38
-26 -91 -48 -211 -114 -273 -149 -38 -21 -70 -38 -72 -38 -2 0 -27 -13 -54
-29 -27 -17 -99 -56 -158 -87 -59 -31 -119 -64 -133 -73 -14 -9 -56 -32 -95
-51 -38 -19 -72 -38 -75 -41 -3 -3 -63 -37 -134 -75 -71 -38 -155 -83 -185
-99 l-56 -30 0 -1635 c0 -1624 0 -1634 20 -1645 11 -5 45 -24 75 -41 30 -17
84 -47 120 -67 74 -40 168 -93 190 -107 8 -6 24 -14 35 -19 11 -5 49 -26 85
-46 36 -20 94 -53 130 -73 36 -19 88 -48 115 -64 28 -16 79 -44 115 -63 36
-19 72 -39 80 -45 44 -27 156 -88 160 -87 3 1 19 -7 35 -19 17 -11 55 -34 85
-50 30 -16 61 -35 68 -41 7 -7 20 -13 28 -13 8 0 20 -5 27 -10 19 -17 127 -79
127 -74 0 3 12 -3 28 -14 15 -10 34 -22 42 -26 8 -3 33 -17 55 -29 22 -13 72
-41 110 -62 39 -21 82 -47 97 -57 16 -11 28 -16 28 -13 0 3 12 -2 27 -13 16
-10 57 -35 93 -54 67 -36 111 -60 242 -134 43 -24 80 -44 84 -44 3 0 18 -8 32
-19 15 -10 63 -37 107 -61 44 -24 96 -52 115 -63 37 -21 103 -58 158 -89 l33
-18 112 65 c62 36 119 70 127 75 8 5 74 43 145 85 72 42 137 80 145 85 40 24
361 212 615 360 101 59 214 125 240 141 17 10 41 24 55 32 14 7 144 83 290
169 146 86 283 166 305 178 22 13 52 30 66 39 55 33 214 126 229 134 8 4 29
16 45 27 17 11 37 23 45 27 8 4 55 31 103 60 48 29 90 53 93 53 2 0 22 12 44
26 l40 27 0 1577 0 1578 -72 45 c-40 24 -109 66 -153 91 -44 26 -143 86 -220
132 -77 47 -149 89 -160 94 -11 6 -49 28 -84 50 -34 22 -67 40 -72 40 -5 0 -9
3 -9 8 0 4 -23 18 -50 31 -28 14 -50 28 -50 31 0 3 -16 12 -35 20 -19 8 -35
17 -35 22 0 4 -4 8 -9 8 -8 0 -196 111 -216 128 -5 4 -18 11 -27 15 -10 3 -42
21 -70 39 -29 18 -65 40 -80 47 -16 8 -28 18 -28 23 0 4 -5 8 -11 8 -7 0 -35
14 -63 32 -28 17 -60 36 -71 42 -11 7 -80 47 -153 91 -74 44 -157 93 -185 109
-29 16 -53 33 -55 38 -2 4 -7 8 -12 8 -4 0 -166 94 -358 209 -342 204 -392
231 -392 214z"/>
</g>
</svg>
